<svg width="32" height="33" viewBox="0 0 32 33" fill="none" xmlns="http://www.w3.org/2000/svg">
<g clip-path="url(#clip0_1755_1226)">
<path d="M24.9123 13.9736C24.4645 12.4297 23.6499 11.017 22.5379 9.85618C21.4259 8.6953 20.0495 7.82069 18.5263 7.30696C17.0214 6.86892 15.4396 6.76128 13.8893 6.99141C12.3389 7.22154 10.8566 7.78401 9.54385 8.64029C9.43583 8.74854 9.30037 8.82532 9.15201 8.86241C9.00365 8.8995 8.84799 8.89549 8.70174 8.85082C8.40689 8.75529 8.14122 8.58624 7.92981 8.35959C7.77591 8.0819 7.72614 7.75841 7.78946 7.44731C7.82967 7.29798 7.90029 7.15857 7.99689 7.03781C8.0935 6.91706 8.21401 6.81756 8.35086 6.74555C12.0702 4.57011 15.7193 4.00871 19.2281 5.13152C20.9555 5.70609 22.5326 6.65967 23.844 7.92244C25.1553 9.18521 26.1677 10.7252 26.807 12.4298H31.5088C30.5474 8.63746 28.2298 5.32883 24.9943 3.12942C21.7588 0.930003 17.8296 -0.00775011 13.9496 0.493456C10.0696 0.994662 6.50764 2.90009 3.93725 5.84948C1.36686 8.79888 -0.0338346 12.5878 -1.18166e-05 16.4999C-1.18166e-05 17.1315 0.0701636 17.6929 0.0701636 18.3245H6.03508C6.26288 18.3116 6.48872 18.373 6.67858 18.4996C6.86843 18.6262 7.01202 18.811 7.08771 19.0263C7.54605 20.5648 8.36438 21.9721 9.4749 23.1314C10.5854 24.2908 11.9562 25.1689 13.4737 25.6929C14.9786 26.131 16.5603 26.2386 18.1107 26.0085C19.6611 25.7783 21.1434 25.2159 22.4561 24.3596C22.5642 24.2513 22.6996 24.1746 22.848 24.1375C22.9963 24.1004 23.152 24.1044 23.2982 24.1491C23.5931 24.2446 23.8588 24.4136 24.0702 24.6403C24.2241 24.918 24.2738 25.2415 24.2105 25.5526C24.1703 25.7019 24.0997 25.8413 24.0031 25.9621C23.9065 26.0828 23.786 26.1823 23.6491 26.2543C21.5338 27.6777 19.0408 28.4353 16.4912 28.4298C15.2311 28.4203 13.9787 28.2312 12.7719 27.8684C11.0372 27.3075 9.45313 26.3588 8.13991 25.0942C6.82669 23.8296 5.81887 22.2824 5.19297 20.5701H0.561392C1.57589 24.3 3.90639 27.5366 7.12211 29.6815C10.3378 31.8265 14.2213 32.7347 18.0548 32.2384C21.8882 31.7421 25.4124 29.8749 27.9759 26.9817C30.5394 24.0886 31.9688 20.3652 32 16.4999C32.0131 15.9143 31.9896 15.3283 31.9298 14.7456H26.0351C25.7958 14.7297 25.5652 14.6497 25.3676 14.5138C25.17 14.378 25.0127 14.1914 24.9123 13.9736Z" fill="#100A42"/>
<path d="M16.0677 23.4997C17.4492 23.4864 18.7959 23.0646 19.9382 22.2874C21.0804 21.5102 21.9671 20.4123 22.4866 19.1322C23.0061 17.852 23.1352 16.4467 22.8576 15.0933C22.5799 13.7399 21.908 12.4989 20.9264 11.5266C19.9448 10.5544 18.6974 9.89435 17.3414 9.62967C15.9854 9.36498 14.5814 9.50748 13.3063 10.0392C12.0311 10.5709 10.9418 11.4681 10.1756 12.6178C9.40933 13.7674 9.00043 15.1181 9.00037 16.4997C9.00032 17.4246 9.18359 18.3404 9.53957 19.1941C9.89556 20.0478 10.4172 20.8225 11.0744 21.4734C11.7315 22.1243 12.5112 22.6385 13.3682 22.9863C14.2253 23.3341 15.1428 23.5086 16.0677 23.4997Z" fill="white"/>
</g>
<defs>
<clipPath id="clip0_1755_1226">
<rect width="32" height="32" fill="white" transform="translate(0 0.5)"/>
</clipPath>
</defs>
</svg>
