<svg width="16" height="17" viewBox="0 0 16 17" fill="none" xmlns="http://www.w3.org/2000/svg">
<g clip-path="url(#clip0_1755_1221)">
<path d="M12.4562 7.23693C12.2323 6.46498 11.825 5.75865 11.269 5.17821C10.713 4.59777 10.0248 4.16047 9.26321 3.9036C8.51077 3.68458 7.71988 3.63076 6.9447 3.74583C6.16952 3.86089 5.42837 4.14212 4.77199 4.57027C4.71797 4.62439 4.65025 4.66278 4.57607 4.68133C4.50189 4.69987 4.42406 4.69787 4.35093 4.67553C4.2035 4.62777 4.07067 4.54324 3.96497 4.42992C3.88802 4.29107 3.86313 4.12933 3.89479 3.97378C3.91489 3.89911 3.9502 3.82941 3.99851 3.76903C4.04681 3.70865 4.10706 3.6589 4.17549 3.6229C6.03514 2.53518 7.8597 2.25448 9.61409 2.81588C10.4778 3.10317 11.2664 3.57996 11.922 4.21134C12.5777 4.84273 13.0839 5.61273 13.4036 6.465H15.7544C15.2737 4.56885 14.115 2.91454 12.4972 1.81483C10.8795 0.715124 8.91488 0.246247 6.97486 0.49685C5.03485 0.747453 3.25388 1.70017 1.96869 3.17486C0.683493 4.64956 -0.0168563 6.54403 5.51269e-05 8.50009C5.51269e-05 8.81588 0.0351428 9.09658 0.0351428 9.41237H3.0176C3.1315 9.40591 3.24442 9.43664 3.33935 9.49992C3.43428 9.56321 3.50607 9.65562 3.54391 9.76325C3.77309 10.5325 4.18225 11.2362 4.73751 11.8158C5.29278 12.3955 5.97816 12.8346 6.7369 13.0966C7.48934 13.3156 8.28023 13.3694 9.05541 13.2544C9.83059 13.1393 10.5717 12.8581 11.2281 12.4299C11.2821 12.3758 11.3499 12.3374 11.424 12.3189C11.4982 12.3003 11.5761 12.3023 11.6492 12.3247C11.7966 12.3724 11.9294 12.4569 12.0351 12.5703C12.1121 12.7091 12.137 12.8709 12.1053 13.0264C12.0852 13.1011 12.0499 13.1708 12.0016 13.2312C11.9533 13.2915 11.893 13.3413 11.8246 13.3773C10.7669 14.089 9.52048 14.4678 8.24567 14.465C7.6156 14.4603 6.98942 14.3657 6.38602 14.1843C5.51868 13.9039 4.72663 13.4295 4.07002 12.7972C3.41341 12.1649 2.9095 11.3913 2.59655 10.5352H0.280757C0.788004 12.4001 1.95326 14.0184 3.56112 15.0909C5.16898 16.1634 7.11073 16.6175 9.02746 16.3693C10.9442 16.1212 12.7063 15.1875 13.988 13.741C15.2697 12.2944 15.9845 10.4327 16.0001 8.50009C16.0066 8.20725 15.9949 7.91428 15.965 7.6229H13.0176C12.898 7.61499 12.7827 7.57497 12.6839 7.50704C12.5851 7.43912 12.5064 7.34581 12.4562 7.23693Z" fill="#100A42"/>
<path d="M8.0339 11.9998C8.72466 11.9932 9.39801 11.7823 9.96914 11.3937C10.5403 11.0051 10.9836 10.4562 11.2434 9.81608C11.5031 9.17598 11.5677 8.47333 11.4288 7.79663C11.29 7.11993 10.954 6.49944 10.4632 6.01331C9.97245 5.52719 9.34878 5.19718 8.67078 5.06483C7.99278 4.93249 7.29078 5.00374 6.65319 5.26961C6.01561 5.53547 5.47096 5.98407 5.08784 6.55889C4.70473 7.13371 4.50028 7.80904 4.50024 8.49984C4.50022 8.96231 4.59186 9.4202 4.76985 9.84705C4.94784 10.2739 5.20866 10.6612 5.53724 10.9867C5.86582 11.3121 6.25564 11.5692 6.68417 11.7431C7.1127 11.917 7.57145 12.0043 8.0339 11.9998Z" fill="white"/>
</g>
<defs>
<clipPath id="clip0_1755_1221">
<rect width="16" height="16" fill="white" transform="translate(0 0.5)"/>
</clipPath>
</defs>
</svg>
